<?xml version="1.0" encoding="UTF-8"?>
<!DOCTYPE svg PUBLIC "-//W3C//DTD SVG 1.1//EN" "http://www.w3.org/Graphics/SVG/1.1/DTD/svg11.dtd">
<svg xmlns="http://www.w3.org/2000/svg" version="1.1" width="857px" height="489px" style="shape-rendering:geometricPrecision; text-rendering:geometricPrecision; image-rendering:optimizeQuality; fill-rule:evenodd; clip-rule:evenodd" xmlns:xlink="http://www.w3.org/1999/xlink">
<g><path style="opacity:0.99" fill="#1390cd" d="M 727.5,65.5 C 722.934,65.6109 720.267,67.9442 719.5,72.5C 716.651,74.4247 713.651,76.0914 710.5,77.5C 706.616,77.9938 702.949,78.9938 699.5,80.5C 691.266,82.4829 682.933,83.9829 674.5,85C 674.043,85.414 673.709,85.914 673.5,86.5C 669.893,87.4892 666.226,87.8226 662.5,87.5C 662.5,88.5 662.5,89.5 662.5,90.5C 658.818,90.3347 655.152,90.5014 651.5,91C 651.043,91.414 650.709,91.914 650.5,92.5C 647.215,93.3236 643.882,93.8236 640.5,94C 640.043,94.414 639.709,94.914 639.5,95.5C 635.541,96.3265 631.541,96.8265 627.5,97C 625.699,97.3173 625.366,97.984 626.5,99C 622.848,99.4986 619.182,99.6653 615.5,99.5C 615.5,100.833 615.5,102.167 615.5,103.5C 614.504,103.414 613.671,103.748 613,104.5C 612.506,106.134 612.34,107.801 612.5,109.5C 613.5,109.5 614.5,109.5 615.5,109.5C 613.62,120.859 612.62,133.193 612.5,146.5C 611.5,146.5 610.5,146.5 609.5,146.5C 609.5,152.5 609.5,158.5 609.5,164.5C 608.5,164.5 607.5,164.5 606.5,164.5C 606.666,170.509 606.499,176.509 606,182.5C 604.984,181.366 604.317,181.699 604,183.5C 603.829,188.864 603.329,194.198 602.5,199.5C 601.914,199.709 601.414,200.043 601,200.5C 600.501,205.155 600.334,209.821 600.5,214.5C 599.5,214.5 598.5,214.5 597.5,214.5C 597.5,218.5 597.5,222.5 597.5,226.5C 596.5,226.5 595.5,226.5 594.5,226.5C 593.723,234.629 592.723,242.629 591.5,250.5C 588.41,249.83 586.743,250.997 586.5,254C 586.684,255.376 587.351,256.209 588.5,256.5C 588.849,259.045 588.016,261.045 586,262.5C 585.503,265.146 585.336,267.813 585.5,270.5C 584.5,270.5 583.5,270.5 582.5,270.5C 582.817,273.572 582.484,276.572 581.5,279.5C 580.817,279.863 580.15,280.196 579.5,280.5C 578.053,281.134 577.387,282.301 577.5,284C 577.684,285.376 578.351,286.209 579.5,286.5C 577.123,289.721 576.123,293.388 576.5,297.5C 575.5,297.5 574.5,297.5 573.5,297.5C 573.738,300.408 572.738,302.742 570.5,304.5C 570.709,305.086 571.043,305.586 571.5,306C 570.5,307.667 569.167,309 567.5,310C 568.576,311.726 568.743,313.559 568,315.5C 567.333,314.167 566.667,314.167 566,315.5C 564.981,317.269 564.814,318.936 565.5,320.5C 565.062,321.506 564.396,321.506 563.5,320.5C 562.534,322.396 562.201,324.396 562.5,326.5C 559.287,326.192 558.287,327.359 559.5,330C 559.389,331.722 558.889,331.888 558,330.5C 556.991,332.025 556.491,333.692 556.5,335.5C 555.5,335.5 554.5,335.5 553.5,335.5C 553.5,336.5 553.5,337.5 553.5,338.5C 552.5,338.5 551.5,338.5 550.5,338.5C 550.872,341.923 549.539,344.423 546.5,346C 546.833,346.333 547.167,346.667 547.5,347C 546.207,347.49 544.873,347.657 543.5,347.5C 543.5,348.5 543.5,349.5 543.5,350.5C 542.5,350.5 541.5,350.5 540.5,350.5C 540.5,351.5 540.5,352.5 540.5,353.5C 539.167,353.5 537.833,353.5 536.5,353.5C 536.5,354.5 536.5,355.5 536.5,356.5C 534.446,356.365 532.779,357.032 531.5,358.5C 530.432,357.566 529.099,357.232 527.5,357.5C 527.5,358.833 527.5,360.167 527.5,361.5C 523.256,363.263 518.923,364.93 514.5,366.5C 503.5,367.833 492.5,367.833 481.5,366.5C 473.046,363.413 464.712,360.08 456.5,356.5C 456.5,355.5 456.5,354.5 456.5,353.5C 455.167,353.5 453.833,353.5 452.5,353.5C 452.5,352.5 452.5,351.5 452.5,350.5C 451.167,350.5 449.833,350.5 448.5,350.5C 448.5,349.5 448.5,348.5 448.5,347.5C 447.127,347.657 445.793,347.49 444.5,347C 444.833,346.667 445.167,346.333 445.5,346C 443.833,344.333 442.167,342.667 440.5,341C 441.609,339.187 440.942,338.354 438.5,338.5C 438.737,337.209 438.404,336.209 437.5,335.5C 437.5,333.833 437.5,332.167 437.5,330.5C 435.833,330.5 434.167,330.5 432.5,330.5C 432.5,329.167 432.5,327.833 432.5,326.5C 431.5,326.5 430.5,326.5 429.5,326.5C 429.66,324.801 429.494,323.134 429,321.5C 425.708,318.191 423.708,314.191 423,309.5C 422.333,308.167 421.667,308.167 421,309.5C 420.503,307.19 420.337,304.857 420.5,302.5C 419.5,302.5 418.5,302.5 417.5,302.5C 417.813,299.753 417.48,297.086 416.5,294.5C 415.914,294.709 415.414,295.043 415,295.5C 412.869,290.46 411.369,285.126 410.5,279.5C 409.914,279.291 409.414,278.957 409,278.5C 408.501,274.848 408.335,271.182 408.5,267.5C 407.5,267.5 406.5,267.5 405.5,267.5C 405.662,265.473 405.495,263.473 405,261.5C 403.562,260.1 402.729,258.433 402.5,256.5C 404.344,255.796 404.844,254.463 404,252.5C 402.989,251.663 401.822,251.33 400.5,251.5C 400.152,247.742 399.485,244.076 398.5,240.5C 399.369,238.283 399.702,235.95 399.5,233.5C 397.833,233.5 396.167,233.5 394.5,233.5C 394.216,235.415 394.549,237.081 395.5,238.5C 395.5,239.833 396.167,240.5 397.5,240.5C 395.391,250.68 394.057,261.013 393.5,271.5C 392.808,272.025 392.308,272.692 392,273.5C 391.501,278.489 391.334,283.489 391.5,288.5C 390.5,288.5 389.5,288.5 388.5,288.5C 388.5,292.5 388.5,296.5 388.5,300.5C 387.5,300.5 386.5,300.5 385.5,300.5C 385.5,304.167 385.5,307.833 385.5,311.5C 384.5,311.5 383.5,311.5 382.5,311.5C 382.663,313.857 382.497,316.19 382,318.5C 381.333,317.167 380.667,317.167 380,318.5C 379.667,320.5 379.333,322.5 379,324.5C 378.086,323.346 377.253,323.513 376.5,325C 376.966,326.299 376.966,327.799 376.5,329.5C 375.5,329.5 374.5,329.5 373.5,329.5C 373.5,331.5 373.5,333.5 373.5,335.5C 372.209,335.263 371.209,335.596 370.5,336.5C 366.5,335.833 364.833,337.5 365.5,341.5C 363.767,342.008 363.434,342.841 364.5,344C 363.062,344.219 361.729,344.719 360.5,345.5C 360.709,346.086 361.043,346.586 361.5,347C 359.616,347.216 357.949,347.883 356.5,349C 356.833,349.333 357.167,349.667 357.5,350C 355.833,350.333 354.167,350.667 352.5,351C 351.167,351.667 351.167,352.333 352.5,353C 350.19,353.497 347.857,353.663 345.5,353.5C 345.5,354.5 345.5,355.5 345.5,356.5C 341.491,356.039 337.824,356.872 334.5,359C 325.5,359.667 316.5,359.667 307.5,359C 304.649,356.752 301.315,355.918 297.5,356.5C 297.5,355.5 297.5,354.5 297.5,353.5C 295.143,353.663 292.81,353.497 290.5,353C 291.833,352.333 291.833,351.667 290.5,351C 288.833,350.667 287.167,350.333 285.5,350C 286.833,349.333 286.833,348.667 285.5,348C 284.167,347.667 282.833,347.333 281.5,347C 282.833,346.333 282.833,345.667 281.5,345C 279.24,343.94 276.907,342.774 274.5,341.5C 274.5,340.5 274.5,339.5 274.5,338.5C 273.167,338.5 271.833,338.5 270.5,338.5C 270.5,337.5 270.5,336.5 270.5,335.5C 269.5,335.5 268.5,335.5 267.5,335.5C 267.5,334.5 267.5,333.5 267.5,332.5C 266.448,332.649 265.448,332.483 264.5,332C 264.854,330.374 264.854,328.541 264.5,326.5C 263.5,326.5 262.5,326.5 261.5,326.5C 261.5,325.5 261.5,324.5 261.5,323.5C 260.5,323.5 259.5,323.5 258.5,323.5C 258.5,322.5 258.5,321.5 258.5,320.5C 257.5,320.5 256.5,320.5 255.5,320.5C 255.66,318.801 255.494,317.134 255,315.5C 254.333,314.167 253.667,314.167 253,315.5C 252.51,314.207 252.343,312.873 252.5,311.5C 251.5,311.5 250.5,311.5 249.5,311.5C 249.5,309.5 249.5,307.5 249.5,305.5C 248.5,305.5 247.5,305.5 246.5,305.5C 245.888,301.956 244.721,298.623 243,295.5C 242.333,294.167 241.667,294.167 241,295.5C 240.503,293.19 240.337,290.857 240.5,288.5C 239.5,288.5 238.5,288.5 237.5,288.5C 237.5,286.5 237.5,284.5 237.5,282.5C 236.5,282.5 235.5,282.5 234.5,282.5C 234.5,280.5 234.5,278.5 234.5,276.5C 233.5,276.5 232.5,276.5 231.5,276.5C 231.357,274.738 231.691,273.071 232.5,271.5C 228.979,270.85 227.979,269.017 229.5,266C 228.583,263.419 227.249,261.086 225.5,259C 225.645,258.228 225.978,257.561 226.5,257C 222.356,248.41 218.689,239.577 215.5,230.5C 214.513,227.232 214.18,223.898 214.5,220.5C 213.5,220.5 212.5,220.5 211.5,220.5C 211.664,217.813 211.497,215.146 211,212.5C 208.943,211.022 207.61,209.022 207,206.5C 205.266,205.751 203.433,205.251 201.5,205C 202.833,204.333 202.833,203.667 201.5,203C 195.833,202.333 190.167,202.333 184.5,203C 184.043,203.414 183.709,203.914 183.5,204.5C 179.878,205.325 176.211,205.825 172.5,206C 170.318,208.012 167.651,209.012 164.5,209C 162.699,209.317 162.366,209.984 163.5,211C 157.804,211.83 152.137,211.663 146.5,210.5C 146.137,209.817 145.804,209.15 145.5,208.5C 145.38,207.414 144.713,206.747 143.5,206.5C 142.287,206.747 141.62,207.414 141.5,208.5C 139.172,206.758 136.839,204.925 134.5,203C 133.552,202.517 132.552,202.351 131.5,202.5C 131.5,201.5 131.5,200.5 131.5,199.5C 130.5,199.5 129.5,199.5 128.5,199.5C 127.023,187.464 127.189,175.464 129,163.5C 129.333,163.833 129.667,164.167 130,164.5C 131.115,163 131.948,161.333 132.5,159.5C 134.825,158.482 136.825,157.149 138.5,155.5C 139.183,157.176 140.517,157.843 142.5,157.5C 142.5,155.833 142.5,154.167 142.5,152.5C 144.167,152.5 145.833,152.5 147.5,152.5C 147.5,151.5 147.5,150.5 147.5,149.5C 153.109,147.264 159.775,145.931 167.5,145.5C 167.291,144.914 166.957,144.414 166.5,144C 183.497,143.5 200.497,143.333 217.5,143.5C 217.5,144.5 217.5,145.5 217.5,146.5C 220.518,146.335 223.518,146.502 226.5,147C 225.167,147.667 225.167,148.333 226.5,149C 228.134,149.494 229.801,149.66 231.5,149.5C 231.5,150.5 231.5,151.5 231.5,152.5C 233.5,152.5 235.5,152.5 237.5,152.5C 237.5,153.5 237.5,154.5 237.5,155.5C 238.833,155.5 240.167,155.5 241.5,155.5C 241.5,156.5 241.5,157.5 241.5,158.5C 242.5,158.5 243.5,158.5 244.5,158.5C 243.756,161.95 245.09,163.616 248.5,163.5C 249.708,164.234 251.041,164.567 252.5,164.5C 252.5,165.5 252.5,166.5 252.5,167.5C 253.552,167.351 254.552,167.517 255.5,168C 255.167,168.333 254.833,168.667 254.5,169C 255.191,170.067 255.691,171.234 256,172.5C 256.667,173.833 257.333,173.833 258,172.5C 258.49,173.793 258.657,175.127 258.5,176.5C 259.791,176.263 260.791,176.596 261.5,177.5C 259.656,179.279 258.99,181.612 259.5,184.5C 261.167,184.5 262.833,184.5 264.5,184.5C 264.5,186.5 264.5,188.5 264.5,190.5C 265.5,190.5 266.5,190.5 267.5,190.5C 267.738,194.524 268.738,198.19 270.5,201.5C 268.72,202.99 268.054,204.99 268.5,207.5C 269.833,207.5 271.167,207.5 272.5,207.5C 273.166,210.689 273.833,214.023 274.5,217.5C 275.086,217.291 275.586,216.957 276,216.5C 276.687,218.568 276.52,220.568 275.5,222.5C 278.567,223.473 279.567,225.306 278.5,228C 279.971,231.694 281.638,235.194 283.5,238.5C 284.48,241.086 284.813,243.753 284.5,246.5C 285.5,246.5 286.5,246.5 287.5,246.5C 287.5,248.5 287.5,250.5 287.5,252.5C 288.5,252.5 289.5,252.5 290.5,252.5C 290.5,254.5 290.5,256.5 290.5,258.5C 291.5,258.5 292.5,258.5 293.5,258.5C 293.5,260.5 293.5,262.5 293.5,264.5C 294.5,264.5 295.5,264.5 296.5,264.5C 296.5,266.5 296.5,268.5 296.5,270.5C 297.5,270.5 298.5,270.5 299.5,270.5C 299.5,272.5 299.5,274.5 299.5,276.5C 300.5,276.5 301.5,276.5 302.5,276.5C 302.966,278.201 302.966,279.701 302.5,281C 303.253,282.487 304.086,282.654 305,281.5C 305.21,283.058 305.71,284.391 306.5,285.5C 306.5,287.167 306.5,288.833 306.5,290.5C 307.833,290.5 309.167,290.5 310.5,290.5C 312.801,292.66 315.134,294.826 317.5,297C 319.42,298.122 321.42,298.956 323.5,299.5C 325.44,294.959 327.273,290.293 329,285.5C 328.838,281.416 330.005,277.916 332.5,275C 332.405,269.711 332.405,264.211 332.5,258.5C 333.5,258.5 334.5,258.5 335.5,258.5C 335.17,251.468 335.503,244.468 336.5,237.5C 338.376,225.343 340.71,213.343 343.5,201.5C 345.167,201.5 346.833,201.5 348.5,201.5C 348.975,198.918 348.308,196.918 346.5,195.5C 348.584,193.725 349.751,191.392 350,188.5C 351.729,188.026 352.895,187.026 353.5,185.5C 355.948,182.213 358.615,179.046 361.5,176C 362.5,175.667 363.5,175.333 364.5,175C 364.167,174.667 363.833,174.333 363.5,174C 364.793,173.51 366.127,173.343 367.5,173.5C 367.5,172.5 367.5,171.5 367.5,170.5C 369.5,170.5 371.5,170.5 373.5,170.5C 373.5,169.5 373.5,168.5 373.5,167.5C 375.857,167.663 378.19,167.497 380.5,167C 380.957,166.586 381.291,166.086 381.5,165.5C 389.807,164.502 398.14,164.169 406.5,164.5C 406.5,165.833 406.5,167.167 406.5,168.5C 408.099,168.768 409.432,168.434 410.5,167.5C 412.781,167.077 414.448,167.744 415.5,169.5C 415.5,170.5 415.5,171.5 415.5,172.5C 417.483,172.843 418.817,172.176 419.5,170.5C 424.493,174.073 429.66,178.406 435,183.5C 437.238,185.309 438.405,187.642 438.5,190.5C 439.5,190.5 440.5,190.5 441.5,190.5C 443.277,193.81 445.11,197.143 447,200.5C 447.595,201.899 447.428,203.232 446.5,204.5C 450.187,205.247 451.187,207.247 449.5,210.5C 453.021,211.15 454.021,212.983 452.5,216C 453.131,218.099 454.131,219.932 455.5,221.5C 454.307,221.97 453.64,222.97 453.5,224.5C 453.52,225.726 453.853,226.726 454.5,227.5C 454.842,228.338 455.508,228.672 456.5,228.5C 459.856,238.147 463.522,247.814 467.5,257.5C 466.351,257.791 465.684,258.624 465.5,260C 465.278,262.275 466.278,263.441 468.5,263.5C 470.273,266.488 470.94,269.821 470.5,273.5C 471.5,273.5 472.5,273.5 473.5,273.5C 473.025,276.082 473.692,278.082 475.5,279.5C 475.5,281.833 475.5,284.167 475.5,286.5C 476.833,286.5 478.167,286.5 479.5,286.5C 479.5,288.167 479.5,289.833 479.5,291.5C 480.791,291.263 481.791,291.596 482.5,292.5C 480.623,293.659 480.123,295.326 481,297.5C 482.356,298.38 483.856,298.714 485.5,298.5C 487.422,302.798 490.755,305.132 495.5,305.5C 495.5,306.5 495.5,307.5 495.5,308.5C 496.5,308.5 497.5,308.5 498.5,308.5C 498.5,307.5 498.5,306.5 498.5,305.5C 501.5,305.167 503.167,303.5 503.5,300.5C 504.5,300.5 505.5,300.5 506.5,300.5C 506.461,298.641 507.294,297.308 509,296.5C 509.494,294.866 509.66,293.199 509.5,291.5C 510.5,291.5 511.5,291.5 512.5,291.5C 512.5,290.167 512.5,288.833 512.5,287.5C 513.93,287.579 515.264,287.246 516.5,286.5C 517.474,284.257 517.808,281.924 517.5,279.5C 518.705,278.328 518.705,276.995 517.5,275.5C 517.833,274.5 518.5,273.833 519.5,273.5C 520.512,267.931 521.846,262.597 523.5,257.5C 525.415,257.784 527.081,257.451 528.5,256.5C 529.461,254.735 529.795,252.735 529.5,250.5C 528.5,250.5 527.5,250.5 526.5,250.5C 526.461,248.641 527.294,247.308 529,246.5C 529.497,243.854 529.664,241.187 529.5,238.5C 530.5,238.5 531.5,238.5 532.5,238.5C 532.334,234.154 532.501,229.821 533,225.5C 533.667,226.833 534.333,226.833 535,225.5C 535.333,221.5 535.667,217.5 536,213.5C 536.914,214.654 537.747,214.487 538.5,213C 538.167,212.667 537.833,212.333 537.5,212C 538.297,208.255 538.797,204.421 539,200.5C 539.414,200.043 539.914,199.709 540.5,199.5C 541.167,195.833 541.833,192.167 542.5,188.5C 543.086,188.291 543.586,187.957 544,187.5C 544.333,181.5 544.667,175.5 545,169.5C 545.333,169.833 545.667,170.167 546,170.5C 546.333,169.5 546.667,168.5 547,167.5C 549.214,155.987 550.714,144.321 551.5,132.5C 552.086,132.291 552.586,131.957 553,131.5C 553.5,124.842 553.666,118.175 553.5,111.5C 554.5,111.5 555.5,111.5 556.5,111.5C 556.334,101.828 556.5,92.1609 557,82.5C 557.333,82.8333 557.667,83.1667 558,83.5C 558.315,81.4144 558.815,79.4144 559.5,77.5C 560.649,77.2089 561.316,76.3756 561.5,75C 561.613,73.3009 560.947,72.1342 559.5,71.5C 559.39,67.3899 560.39,63.7233 562.5,60.5C 563.833,60.5 565.167,60.5 566.5,60.5C 566.5,58.8333 566.5,57.1667 566.5,55.5C 567.492,55.6716 568.158,55.3382 568.5,54.5C 570.167,54.5 571.833,54.5 573.5,54.5C 573.5,52.8333 573.5,51.1667 573.5,49.5C 577.979,47.5391 582.645,45.8725 587.5,44.5C 591.796,43.6725 596.129,43.1725 600.5,43C 601.833,42.3333 601.833,41.6667 600.5,41C 604.486,40.5012 608.486,40.3345 612.5,40.5C 612.5,39.5 612.5,38.5 612.5,37.5C 616.167,37.5 619.833,37.5 623.5,37.5C 623.5,36.5 623.5,35.5 623.5,34.5C 626.167,34.5 628.833,34.5 631.5,34.5C 632.5,37.1667 633.5,37.1667 634.5,34.5C 635.404,33.791 635.737,32.791 635.5,31.5C 639.514,31.6655 643.514,31.4988 647.5,31C 648.833,30.3333 648.833,29.6667 647.5,29C 652.202,28.8283 656.868,28.3283 661.5,27.5C 661.291,26.914 660.957,26.414 660.5,26C 664.486,25.5012 668.486,25.3345 672.5,25.5C 672.5,24.5 672.5,23.5 672.5,22.5C 676.555,22.8242 680.555,22.4909 684.5,21.5C 684.291,20.914 683.957,20.414 683.5,20C 693.822,18.3237 704.155,18.157 714.5,19.5C 714.5,20.5 714.5,21.5 714.5,22.5C 715.833,22.5 717.167,22.5 718.5,22.5C 718.5,23.5 718.5,24.5 718.5,25.5C 719.873,25.3433 721.207,25.51 722.5,26C 722.167,26.3333 721.833,26.6667 721.5,27C 723.439,27.9078 724.439,29.4078 724.5,31.5C 725.5,31.5 726.5,31.5 727.5,31.5C 728.778,42.8407 728.778,54.174 727.5,65.5 Z"/></g>
<g><path style="opacity:0.455" fill="#0e40e9" d="M 631.5,34.5 C 632.5,34.5 633.5,34.5 634.5,34.5C 633.5,37.1667 632.5,37.1667 631.5,34.5 Z"/></g>
<g><path style="opacity:0.165" fill="#0d8aab" d="M 573.5,49.5 C 573.5,51.1667 573.5,52.8333 573.5,54.5C 571.833,54.5 570.167,54.5 568.5,54.5C 568.821,52.9519 569.821,52.2852 571.5,52.5C 571.285,50.8212 571.952,49.8212 573.5,49.5 Z"/></g>
<g><path style="opacity:0.229" fill="#084565" d="M 566.5,55.5 C 566.5,57.1667 566.5,58.8333 566.5,60.5C 565.167,60.5 563.833,60.5 562.5,60.5C 562.821,58.9519 563.821,58.2852 565.5,58.5C 565.263,57.209 565.596,56.209 566.5,55.5 Z"/></g>
<g><path style="opacity:0.014" fill="#0a2cf1" d="M 727.5,65.5 C 726.791,66.404 725.791,66.7373 724.5,66.5C 724.5,67.5 724.5,68.5 724.5,69.5C 722.041,69.31 720.374,70.31 719.5,72.5C 720.267,67.9442 722.934,65.6109 727.5,65.5 Z"/></g>
<g><path style="opacity:0.584" fill="#0d425d" d="M 559.5,71.5 C 560.947,72.1342 561.613,73.3009 561.5,75C 561.316,76.3756 560.649,77.2089 559.5,77.5C 559.5,75.5 559.5,73.5 559.5,71.5 Z"/></g>
<g><path style="opacity:0.754" fill="#0d7bcd" d="M 615.5,103.5 C 615.5,105.5 615.5,107.5 615.5,109.5C 614.5,109.5 613.5,109.5 612.5,109.5C 612.34,107.801 612.506,106.134 613,104.5C 613.671,103.748 614.504,103.414 615.5,103.5 Z"/></g>
<g><path style="opacity:0.192" fill="#0d3a9d" d="M 142.5,152.5 C 142.5,154.167 142.5,155.833 142.5,157.5C 140.517,157.843 139.183,157.176 138.5,155.5C 140.778,154.815 142.112,153.815 142.5,152.5 Z"/></g>
<g><path style="opacity:0.035" fill="#0f3aeb" d="M 244.5,158.5 C 245.87,160.172 247.203,161.839 248.5,163.5C 245.09,163.616 243.756,161.95 244.5,158.5 Z"/></g>
<g><path style="opacity:0.306" fill="#09354b" d="M 406.5,164.5 C 407.236,166.229 408.57,167.229 410.5,167.5C 409.432,168.434 408.099,168.768 406.5,168.5C 406.5,167.167 406.5,165.833 406.5,164.5 Z"/></g>
<g><path style="opacity:0.62" fill="#1353e2" d="M 415.5,169.5 C 416.708,170.234 418.041,170.567 419.5,170.5C 418.817,172.176 417.483,172.843 415.5,172.5C 415.5,171.5 415.5,170.5 415.5,169.5 Z"/></g>
<g><path style="opacity:0.1" fill="#0a71bb" d="M 261.5,177.5 C 261.5,179.167 261.5,180.833 261.5,182.5C 263.179,182.285 264.179,182.952 264.5,184.5C 262.833,184.5 261.167,184.5 259.5,184.5C 258.99,181.612 259.656,179.279 261.5,177.5 Z"/></g>
<g><path style="opacity:0.004" fill="#017fde" d="M 353.5,185.5 C 352.833,184.167 352.833,184.167 353.5,185.5 Z"/></g>
<g><path style="opacity:0.247" fill="#0a30ef" d="M 346.5,195.5 C 348.308,196.918 348.975,198.918 348.5,201.5C 346.833,201.5 345.167,201.5 343.5,201.5C 344.483,200.15 345.816,199.15 347.5,198.5C 346.873,197.583 346.539,196.583 346.5,195.5 Z"/></g>
<g><path style="opacity:0.443" fill="#124fe3" d="M 145.5,208.5 C 144.167,208.5 142.833,208.5 141.5,208.5C 141.62,207.414 142.287,206.747 143.5,206.5C 144.713,206.747 145.38,207.414 145.5,208.5 Z"/></g>
<g><path style="opacity:0.004" fill="#0771cb" d="M 270.5,201.5 C 270.614,203.718 271.28,205.718 272.5,207.5C 271.167,207.5 269.833,207.5 268.5,207.5C 268.054,204.99 268.72,202.99 270.5,201.5 Z"/></g>
<g><path style="opacity:0.196" fill="#0d33ed" d="M 455.5,222.5 C 455.258,224.27 455.591,226.27 456.5,228.5C 455.508,228.672 454.842,228.338 454.5,227.5C 454.216,225.585 454.549,223.919 455.5,222.5 Z"/></g>
<g><path style="opacity:0.594" fill="#0e65db" d="M 455.5,221.5 C 455.5,221.833 455.5,222.167 455.5,222.5C 454.549,223.919 454.216,225.585 454.5,227.5C 453.853,226.726 453.52,225.726 453.5,224.5C 453.64,222.97 454.307,221.97 455.5,221.5 Z"/></g>
<g><path style="opacity:0.643" fill="#0b587d" d="M 398.5,240.5 C 398.167,240.5 397.833,240.5 397.5,240.5C 396.167,240.5 395.5,239.833 395.5,238.5C 394.549,237.081 394.216,235.415 394.5,233.5C 396.167,233.5 397.833,233.5 399.5,233.5C 399.702,235.95 399.369,238.283 398.5,240.5 Z"/></g>
<g><path style="opacity:0.18" fill="#06141b" d="M 397.5,238.5 C 397.167,234.5 396.833,234.5 396.5,238.5C 396.167,238.5 395.833,238.5 395.5,238.5C 395.5,237.167 395.5,235.833 395.5,234.5C 396.5,234.5 397.5,234.5 398.5,234.5C 398.768,236.099 398.434,237.432 397.5,238.5 Z"/></g>
<g><path style="opacity:0.008" fill="#096eb9" d="M 591.5,250.5 C 591.179,252.048 590.179,252.715 588.5,252.5C 588.5,253.833 588.5,255.167 588.5,256.5C 587.351,256.209 586.684,255.376 586.5,254C 586.743,250.997 588.41,249.83 591.5,250.5 Z"/></g>
<g><path style="opacity:0.282" fill="#05e6f3" d="M 400.5,251.5 C 401.822,251.33 402.989,251.663 404,252.5C 404.844,254.463 404.344,255.796 402.5,256.5C 402.414,255.504 402.748,254.671 403.5,254C 402.429,253.148 401.429,252.315 400.5,251.5 Z"/></g>
<g><path style="opacity:0.71" fill="#0f6dd8" d="M 526.5,251.5 C 526.5,251.167 526.5,250.833 526.5,250.5C 527.5,250.5 528.5,250.5 529.5,250.5C 529.795,252.735 529.461,254.735 528.5,256.5C 528.923,254.219 528.256,252.552 526.5,251.5 Z"/></g>
<g><path style="opacity:0.345" fill="#0a30f0" d="M 526.5,251.5 C 528.256,252.552 528.923,254.219 528.5,256.5C 527.081,257.451 525.415,257.784 523.5,257.5C 525.545,256.077 526.545,254.077 526.5,251.5 Z"/></g>
<g><path style="opacity:0.506" fill="#0c425d" d="M 467.5,257.5 C 467.517,259.565 467.85,261.565 468.5,263.5C 466.278,263.441 465.278,262.275 465.5,260C 465.684,258.624 466.351,257.791 467.5,257.5 Z"/></g>
<g><path style="opacity:0.173" fill="#1240e9" d="M 517.5,279.5 C 517.808,281.924 517.474,284.257 516.5,286.5C 515.264,287.246 513.93,287.579 512.5,287.5C 512.821,285.952 513.821,285.285 515.5,285.5C 515.025,282.918 515.692,280.918 517.5,279.5 Z"/></g>
<g><path style="opacity:0.204" fill="#133cec" d="M 579.5,280.5 C 579.935,282.297 579.935,284.297 579.5,286.5C 578.351,286.209 577.684,285.376 577.5,284C 577.387,282.301 578.053,281.134 579.5,280.5 Z"/></g>
<g><path style="opacity:0.016" fill="#0280f4" d="M 475.5,279.5 C 476.461,281.265 476.795,283.265 476.5,285.5C 477.791,285.263 478.791,285.596 479.5,286.5C 478.167,286.5 476.833,286.5 475.5,286.5C 475.5,284.167 475.5,281.833 475.5,279.5 Z"/></g>
<g><path style="opacity:0.108" fill="#0a4562" d="M 306.5,285.5 C 308.387,286.656 309.721,288.323 310.5,290.5C 309.167,290.5 307.833,290.5 306.5,290.5C 306.5,288.833 306.5,287.167 306.5,285.5 Z"/></g>
<g><path style="opacity:0.051" fill="#092692" d="M 482.5,292.5 C 482.5,294.167 482.5,295.833 482.5,297.5C 483.791,297.263 484.791,297.596 485.5,298.5C 483.856,298.714 482.356,298.38 481,297.5C 480.123,295.326 480.623,293.659 482.5,292.5 Z"/></g>
<g><path style="opacity:0.161" fill="#093c58" d="M 432.5,330.5 C 434.167,330.5 435.833,330.5 437.5,330.5C 437.5,332.167 437.5,333.833 437.5,335.5C 435.952,335.179 435.285,334.179 435.5,332.5C 433.821,332.715 432.821,332.048 432.5,330.5 Z"/></g>
<g><path style="opacity:0.025" fill="#0c2ff1" d="M 370.5,336.5 C 370.179,338.048 369.179,338.715 367.5,338.5C 367.715,340.179 367.048,341.179 365.5,341.5C 364.833,337.5 366.5,335.833 370.5,336.5 Z"/></g>
<g><path style="opacity:0.024" fill="#0e43e8" d="M 531.5,358.5 C 530.074,359.341 528.74,360.341 527.5,361.5C 527.5,360.167 527.5,358.833 527.5,357.5C 529.099,357.232 530.432,357.566 531.5,358.5 Z"/></g>
<g><path style="opacity:0.986" fill="#1390cd" d="M 551.5,412.5 C 551.157,414.483 551.824,415.817 553.5,416.5C 554.189,417.774 555.023,417.774 556,416.5C 556.495,418.473 556.662,420.473 556.5,422.5C 555.351,422.791 554.684,423.624 554.5,425C 554.743,428.003 556.41,429.17 559.5,428.5C 559.5,432.167 559.5,435.833 559.5,439.5C 556.07,438.755 554.403,440.089 554.5,443.5C 554.64,445.03 555.307,446.03 556.5,446.5C 556.5,447.833 556.5,449.167 556.5,450.5C 555.5,450.5 554.5,450.5 553.5,450.5C 553.5,452.5 553.5,454.5 553.5,456.5C 552.448,456.351 551.448,456.517 550.5,457C 549.167,457.667 549.167,458.333 550.5,459C 549.5,459.333 548.5,459.667 547.5,460C 546.167,460.667 546.167,461.333 547.5,462C 544.754,462.685 543.088,463.852 542.5,465.5C 541.5,462.833 540.5,462.833 539.5,465.5C 539.414,466.496 539.748,467.329 540.5,468C 527.196,469.812 513.863,469.978 500.5,468.5C 500.5,467.5 500.5,466.5 500.5,465.5C 499.127,465.657 497.793,465.49 496.5,465C 497.833,464.333 497.833,463.667 496.5,463C 495.167,462.667 493.833,462.333 492.5,462C 492.833,461.667 493.167,461.333 493.5,461C 491.893,459.951 491.227,458.451 491.5,456.5C 490.5,456.5 489.5,456.5 488.5,456.5C 488.737,455.209 488.404,454.209 487.5,453.5C 487.664,450.813 487.497,448.146 487,445.5C 486.329,444.748 485.496,444.414 484.5,444.5C 483.883,444.611 483.383,444.944 483,445.5C 482.5,437.507 482.334,429.507 482.5,421.5C 483.5,421.5 484.5,421.5 485.5,421.5C 486.24,417.359 487.24,413.359 488.5,409.5C 489.5,409.5 490.5,409.5 491.5,409.5C 491.5,408.5 491.5,407.5 491.5,406.5C 492.552,406.649 493.552,406.483 494.5,406C 496.549,402.563 499.549,400.563 503.5,400C 504.833,399.333 504.833,398.667 503.5,398C 507.287,397.84 510.954,397.174 514.5,396C 514.167,395.667 513.833,395.333 513.5,395C 517.833,394.333 522.167,394.333 526.5,395C 525.366,396.016 525.699,396.683 527.5,397C 535.205,398.145 542.038,401.312 548,406.5C 549.462,408.437 550.628,410.437 551.5,412.5 Z"/></g>
<g><path style="opacity:0.981" fill="#1390cd" d="M 350.5,409.5 C 349.833,413.5 351.5,415.167 355.5,414.5C 355.5,415.833 355.5,417.167 355.5,418.5C 356.5,418.5 357.5,418.5 358.5,418.5C 358.832,428.522 358.499,438.522 357.5,448.5C 354.97,451.791 353.303,455.458 352.5,459.5C 351.5,459.5 350.5,459.5 349.5,459.5C 349.5,460.5 349.5,461.5 349.5,462.5C 348.448,462.351 347.448,462.517 346.5,463C 345.167,463.667 345.167,464.333 346.5,465C 344.833,465.333 343.167,465.667 341.5,466C 340.167,466.667 340.167,467.333 341.5,468C 328.234,469.826 315.234,469.992 302.5,468.5C 302.5,467.5 302.5,466.5 302.5,465.5C 300.833,465.5 299.167,465.5 297.5,465.5C 297.5,464.5 297.5,463.5 297.5,462.5C 296.5,462.5 295.5,462.5 294.5,462.5C 294.5,461.5 294.5,460.5 294.5,459.5C 293.5,459.5 292.5,459.5 291.5,459.5C 291.167,457.5 290.833,455.5 290.5,453.5C 289.5,453.5 288.5,453.5 287.5,453.5C 287.936,450.636 287.103,448.303 285,446.5C 284.333,437.5 284.333,428.5 285,419.5C 285.414,419.957 285.914,420.291 286.5,420.5C 287.275,418.157 287.942,415.823 288.5,413.5C 289.833,413.5 291.167,413.5 292.5,413.5C 292.5,412.167 292.5,410.833 292.5,409.5C 294.146,407.854 295.812,406.188 297.5,404.5C 298.325,403.614 299.325,403.281 300.5,403.5C 300.5,402.5 300.5,401.5 300.5,400.5C 307.614,398.32 314.781,396.32 322,394.5C 324.167,394.667 326.333,394.833 328.5,395C 327.366,396.016 327.699,396.683 329.5,397C 332.482,397.498 335.482,397.665 338.5,397.5C 338.5,398.5 338.5,399.5 338.5,400.5C 340.167,400.5 341.833,400.5 343.5,400.5C 343.5,401.5 343.5,402.5 343.5,403.5C 344.5,403.5 345.5,403.5 346.5,403.5C 346.5,404.5 346.5,405.5 346.5,406.5C 347.5,406.5 348.5,406.5 349.5,406.5C 349.263,407.791 349.596,408.791 350.5,409.5 Z"/></g>
<g><path style="opacity:0.222" fill="#074261" d="M 350.5,409.5 C 352.048,409.821 352.715,410.821 352.5,412.5C 354.179,412.285 355.179,412.952 355.5,414.5C 355.179,412.952 354.179,412.285 352.5,412.5C 352.715,410.821 352.048,409.821 350.5,409.5 Z"/></g>
<g><path style="opacity:0.052" fill="#072bf0" d="M 292.5,409.5 C 292.5,410.833 292.5,412.167 292.5,413.5C 291.167,413.5 289.833,413.5 288.5,413.5C 290.167,412.5 291.5,411.167 292.5,409.5 Z"/></g>
<g><path style="opacity:0.204" fill="#0b35ee" d="M 551.5,412.5 C 553.176,413.183 553.843,414.517 553.5,416.5C 551.824,415.817 551.157,414.483 551.5,412.5 Z"/></g>
<g><path style="opacity:0.008" fill="#0783f0" d="M 556.5,422.5 C 556.028,425.358 557.028,427.358 559.5,428.5C 556.41,429.17 554.743,428.003 554.5,425C 554.684,423.624 555.351,422.791 556.5,422.5 Z"/></g>
<g><path style="opacity:0.439" fill="#0e3beb" d="M 559.5,439.5 C 556.909,440.991 555.909,443.325 556.5,446.5C 555.307,446.03 554.64,445.03 554.5,443.5C 554.403,440.089 556.07,438.755 559.5,439.5 Z"/></g>
<g><path style="opacity:0.188" fill="#086eb8" d="M 484.5,444.5 C 485.496,444.414 486.329,444.748 487,445.5C 487.497,448.146 487.664,450.813 487.5,453.5C 485.55,450.691 484.55,447.691 484.5,444.5 Z"/></g>
<g><path style="opacity:0.169" fill="#0bd2ea" d="M 542.5,465.5 C 541.5,465.5 540.5,465.5 539.5,465.5C 540.5,462.833 541.5,462.833 542.5,465.5 Z"/></g>
</svg>
